<svg xmlns="http://www.w3.org/2000/svg" version="1.1" xmlns:xlink="http://www.w3.org/1999/xlink" xmlns:svgjs="http://svgjs.dev/svgjs" viewBox="0 0 800 800" opacity="0.38"><g stroke-width="1" stroke="hsl(180, 37%, 73%)" fill="none"><path d="M580.4156222505607 230.87004283781732C629.9672193777674 330.7662575561319 704.2747776489518 586.7284531663208 664.9130974125602 649.3916776335266C625.5514171761686 712.0549021007324 473.759186290534 579.4471823067997 391.47955711587997 531.6535202804047C309.19992794122606 483.8598582540096 324.5247091057212 497.9439556468201 269.97087737422123 419.98209990682994C215.41704564272123 342.0202441668397 96.89313275723242 209.53916542037177 129.62116480467967 157.43661272845225C162.3491968521269 105.33406003653278 333.1499192340758 154.59121571283237 427.0654312019677 169.88984698561677C520.9809431698596 185.18847825840118 530.8640251233539 130.9738281195028 580.4156222505607 230.87004283781732C629.9672193777674 330.7662575561319 704.2747776489518 586.7284531663208 664.9130974125602 649.3916776335266 "></path><path d="M572.8982995705243 237.91709514022926C620.3852468174307 333.650967578614 691.5966568273158 578.9480717050451 653.8750466007738 639.0003284861174C616.1534363742319 699.0525852671896 470.68588177549873 571.9701871313373 391.834570483122 526.1679276893755C312.98325919074523 480.3656682474134 327.6695078067197 493.86292824885686 275.38875239736564 419.14948316469963C223.1079969880115 344.4360380805424 109.52258047275137 217.4750042818439 140.8869445182217 167.54339128542108C172.25130856369196 117.61177828899821 335.9353341797263 164.8165524787853 425.93769981562264 179.47774078187035C515.9400654515191 194.1389290849554 525.4113523236177 142.1832227018445 572.8982995705243 237.91709514022926C620.3852468174307 333.650967578614 691.5966568273158 578.9480717050451 653.8750466007738 639.0003284861174 "></path><path d="M565.3809768904878 244.9641627014302C610.803274257094 336.5356928598852 678.9185360056798 571.1677055025584 642.8369957889875 628.608994597497C606.7554555722952 686.0502836924358 467.61257726046347 564.4932072146642 392.189583850364 520.6823503571352C316.7665904402645 476.87149349960646 330.81430650771836 489.7819161096827 280.80662742051004 418.3168816813584C230.79894833330178 346.85184725303407 122.15202818827038 225.41085840210508 152.15272423176367 177.65018510117892C182.15342027525696 129.8895118002527 338.72074912537676 175.04190450352735 424.80996842927766 189.06564983691305C510.8991877331787 203.08939517029876 519.9586795238816 153.3926325429752 565.3809768904878 244.9641627014302C610.803274257094 336.5356928598852 678.9185360056798 571.1677055025584 642.8369957889875 628.608994597497 "></path><path d="M557.8636999868187 252.01129129778747C601.2213474731245 339.4204791763127 666.2404609604109 563.387400335228 631.7989907535682 618.217721744033C597.3575205467255 673.0480431528381 464.5393185217954 557.016288333147 392.5446429939732 515.1968340600513C320.54996746615086 473.37737978695566 333.9591509850841 485.7009650056648 286.2245482200217 417.4843412331734C238.48994545495924 349.267717460682 134.78152168015652 233.3467735575225 163.41854972167283 187.757039952093C192.0555777631892 142.16730634666345 341.5062098473944 185.2673175634256 423.68228281929987 198.65361992711195C505.8583557912053 212.0399222907983 514.5060525005129 164.60210341926222 557.8636999868187 252.01129129778747C601.2213474731245 339.4204791763127 666.2404609604109 563.387400335228 631.7989907535682 618.217721744033 "></path><path d="M550.3463925655714 259.05834360019935C591.639390171577 342.3051891987948 653.562355397564 555.6070188739523 620.7609552005711 607.8263725966237C587.9595550035779 660.0457263192952 461.4660292655492 549.5392931576846 392.89967162000426 509.71124146902207C324.3333139744592 469.88318978035954 337.1039649448718 481.61993760770156 291.64243850195516 416.65172449104307C246.18091205903852 351.6835113743846 147.41098465446453 241.2826124189947 174.68434469400393 197.8638185090618C201.95770473354327 154.44502459912889 344.29164005183395 195.49265432937852 422.55456669174396 208.24151372336553C500.81749333165385 220.99037311735253 509.0533949595657 175.81149800160387 550.3463925655714 259.05834360019935C591.639390171577 342.3051891987948 653.562355397564 555.6070188739523 620.7609552005711 607.8263725966237 "></path><path d="M542.8290241091678 266.10542642018936C582.0573718348732 345.18992973885497 640.8841887995609 547.8266679302546 609.7228586124174 597.4350539667926C578.561528425274 647.0434400033305 458.39267897414675 542.0623284998004 393.25463921087896 504.225679395571C328.1165994476112 466.38903029134156 340.2487178695032 477.53894072731646 297.0602677487324 415.819138266491C253.8718176279616 354.0993358056654 160.0403865936163 249.21848179804493 185.9500786311787 207.9706275836087C211.85977066874113 166.72277336917244 347.07700922111735 205.71802161290964 421.4267895290318 217.8294380371973C495.77656983694624 229.94085446148495 503.6006763834624 187.0209231015237 542.8290241091678 266.10542642018936C582.0573718348732 345.18992973885497 640.8841887995609 547.8266679302546 609.7228586124174 597.4350539667926 "></path><path d="M535.3117472054986 273.15252449896843C572.4754450509037 348.07468553770434 628.2061137542919 540.0463322453461 598.6848535769982 587.0437505957505C569.1635933997045 634.0411689461548 455.3194202354787 534.5853791007053 393.60969835448816 498.74013258090895C331.89997647349765 462.89488606111263 343.393562346869 473.45795910572053 302.478188548244 414.98656730072787C261.56281474961906 356.5151754957352 172.66988008550243 257.1543664358843 197.21590412108787 218.07745191694465C221.76192815667332 179.00053739800506 349.86246994313495 215.94340415522976 420.2991039190539 227.41737760981806C490.7357378949728 238.89135106440636 498.1480493600935 198.23036346023258 535.3117472054986 273.15252449896843C572.4754450509037 348.07468553770434 628.2061137542919 540.0463322453461 598.6848535769982 587.0437505957505 "></path><path d="M527.7944245254622 280.19959206016944C562.8934724905671 350.9594108189756 615.5279929326559 532.2659660428594 587.6468027652119 576.6524167071302C559.7656125977678 621.038867371401 452.2461157204434 527.1083991840319 393.96471172173017 493.2545552486688C335.68330772301687 459.4007113133056 346.5383610478676 469.37694696654637 307.8960635713885 414.1539658173866C269.25376609490934 358.9309846682269 185.29932780102143 265.0902205561455 208.4816838346299 228.1842457327025C231.66403986823832 191.27827090925956 352.6478848887855 226.16875617997175 419.1713725327089 237.0052866648607C485.69486017663235 247.84181714974966 492.69537656035743 209.4397733013633 527.7944245254622 280.19959206016944C562.8934724905671 350.9594108189756 615.5279929326559 532.2659660428594 587.6468027652119 576.6524167071302 "></path><path d="M520.2770865866369 287.2466748801595C553.3114846714413 353.8441513590358 602.8498568522309 524.4856150991618 576.6087366946365 566.261098077299C550.3676165370421 608.0365810554363 449.1727959466191 519.6314345261477 394.319709830183 487.7689931752177C339.466623713747 455.9065518242876 349.6831444900771 465.29595008616127 313.3139233357438 413.32137959283455C276.94470218141055 361.3468090995077 197.92876025775132 273.0260899351957 219.74744828938282 238.29105480724945C241.5661363210143 203.55601967930312 355.4332845756469 236.3941234635028 418.04362588757476 246.5932109786924C480.65396719950286 256.792298493882 487.24268850183216 220.64919840128312 520.2770865866369 287.2466748801595C553.3114846714413 353.8441513590358 602.8498568522309 524.4856150991618 576.6087366946365 566.261098077299 "></path><path d="M512.7597944241785 294.2937577001495C543.7295426286828 356.7288918990961 590.1717665481731 516.7052641554642 565.5707164004282 555.8697794474679C540.9696662526835 595.0342947394715 446.09952194916195 512.1544698682635 394.67475371500313 482.2834311017666C343.24998548084443 452.4123923352697 352.8279737086539 461.2149532057763 318.73182887646635 412.48879336828236C284.6356840442789 363.7626335307885 210.5582384908484 280.96195931424603 231.01325852050292 248.39786388179635C251.46827855015744 215.83376844934668 358.2187300388755 246.61949074703392 416.9159250188079 256.1811352925242C475.61311999874044 265.7427798380144 481.7900462196743 231.85862350120294 512.7597944241785 294.2937577001495C543.7295426286828 356.7288918990961 590.1717665481731 516.7052641554642 565.5707164004282 555.8697794474679 "></path><path d="M505.2424870029313 301.3408557789286C534.1475853271352 359.61364769794545 577.4936609853261 508.92492847055564 554.5326808474309 545.4784760764257C531.5717007095359 582.0320236822959 443.02623269291576 504.67752046916826 395.0297823410342 476.7978842871046C347.03333198915266 448.9182481050408 355.9727876684415 457.13397158418024 324.1497191583999 411.65622240251923C292.3266506483582 366.17847322085834 223.1877014651564 288.89784395208534 242.27905349283395 258.5046882151323C261.37040552051155 228.1115324781793 361.004160243315 256.84487328935404 415.788208891252 265.76907486514494C470.57225753918897 274.69327644093585 476.3373886787273 243.06806385991177 505.2424870029313 301.3408557789286C534.1475853271352 359.61364769794545 577.4936609853261 508.92492847055564 554.5326808474309 545.4784760764257 "></path><path d="M497.72513380531666 308.38793859891865C524.5655822492204 362.49838823800565 564.8155096461119 501.14457752685803 543.4945995180665 535.0871574465946C522.173689390021 569.029737366331 439.95289766030226 497.20055581128406 395.38476519069803 471.3123222136535C350.8166327210938 445.4240886160228 359.117555851862 453.05297470379514 329.56756366396615 410.82363617796705C300.0175714760704 368.59429765213906 235.81711866309723 296.8337133311356 253.54480268879786 268.6114972896792C271.2724867144984 240.38928124822286 363.7895446713874 267.0702405728851 414.6604469873289 275.35699917897665C465.5313493032703 283.6437577850682 470.88468536141295 254.2774889598316 497.72513380531666 308.38793859891865C524.5655822492204 362.49838823800565 564.8155096461119 501.14457752685803 543.4945995180665 535.0871574465946 "></path><path d="M490.20782638406945 315.4350061601196C514.9836249476728 365.3831135192769 552.137404083265 493.36421132437135 532.4565639650691 524.6958235579742C512.7757238468733 556.0274357915771 436.87960840405606 489.7235758946108 395.73979381672905 465.82674488141333C354.5999792294021 441.92991386821575 362.26236981164965 448.971962564621 334.9854539458997 409.9910346946259C307.7085380801497 371.0101068246308 248.4465816374053 304.7695674513968 264.8105976611289 278.71829110543706C281.17461368485255 252.66701475947735 366.57497487582697 277.29559259762715 413.5327308597729 284.94490823401935C460.4904868437188 292.59422387041155 465.43202782046603 265.4868988009623 490.20782638406945 315.4350061601196C514.9836249476728 365.3831135192769 552.137404083265 493.36421132437135 532.4565639650691 524.6958235579742 "></path><path d="M482.690518962822 322.4821042388987C505.40166764612513 368.2678693181262 539.4592985204181 485.5838756394628 521.4185284120719 514.3045201869321C503.3777583037257 543.0251647344014 433.80631914780986 482.24662649551567 396.0948224427601 460.3411980667512C358.3833257377104 438.4357696379868 365.4071837714373 444.89098094302494 340.40334422783314 409.1584637288628C315.399504684229 373.4259465147006 261.0760446117133 312.70545208923613 276.07639263345993 288.825115438773C291.0767406552066 264.94477878831 369.3604050802665 287.52097513994727 412.40501473221696 294.5328478066401C455.44962438416746 301.544720473333 459.9793702795189 276.6963391596712 482.690518962822 322.4821042388987C505.40166764612513 368.2678693181262 539.4592985204181 485.5838756394628 521.4185284120719 514.3045201869321 "></path><path d="M475.1731810239967 329.5291718000997C495.8196798269994 371.1525945993974 526.781162439993 477.8035094369761 510.38046234149647 503.91318629831187C493.97976224299987 530.0228631596476 430.73299937398554 474.7696465788423 396.44982055121307 454.85562073451104C362.16664172844054 434.9415948901798 368.55196721364683 440.8099688038508 345.82120399218854 408.32586224552153C323.0904407707302 375.8417556871923 273.7054770684432 320.6413062094973 287.3421570882129 298.93190925453086C300.9788371079826 277.22251229956447 372.1458047671279 297.74632716468926 411.2772680870829 304.12075686168276C450.40873140703786 310.49518655867627 454.52668222099373 287.90574900080196 475.1731810239967 329.5291718000997C495.8196798269994 371.1525945993974 526.781162439993 477.8035094369761 510.38046234149647 503.91318629831187 "></path><path d="M467.6558888615384 336.5762393613006C486.23773778424084 374.0373198806686 514.103072135935 470.02314323448945 499.34244204728816 493.52185240969163C484.5818119586413 517.0205615848938 427.6597253765284 467.29266666216904 396.80486443603314 449.3700434022709C365.9500034955379 431.4474201423727 371.69679643222355 436.7289566646767 351.2391095329111 407.49326076218034C330.7814226335986 378.257564859684 286.3349553015403 328.57716032975856 298.607967319333 309.03870307028876C310.8809793371257 289.5002458108189 374.93125023035657 307.97167918943126 410.149567218316 313.7086659167254C445.36788420627545 319.44565264401956 449.0740399388358 299.11515884193267 467.6558888615384 336.5762393613006C486.23773778424084 374.0373198806686 514.103072135935 470.02314323448945 499.34244204728816 493.52185240969163 "></path><path d="M460.13856618150203 343.62333744007975C476.65576522390427 376.9220756795179 501.42495131429905 462.2428075495809 488.30439123550184 483.1305490386495C475.1838311567046 504.01829052771814 424.58642086149314 459.8157172630738 397.1598778032751 443.88449658760885C369.7333347450571 427.9532759121438 374.84159513322214 432.64797504308063 356.6569845560555 406.6606897964173C338.47237397888887 380.67340454975385 298.9644030170592 336.51304496759786 309.873747032875 319.1455274036247C320.7830910486907 301.77800983965153 377.71666517600704 318.19706173175143 409.021835831971 323.29660548934623C440.327006487935 328.39614924694104 443.6213671390997 310.32459920064156 460.13856618150203 343.62333744007975C476.65576522390427 376.9220756795179 501.42495131429905 462.2428075495809 488.30439123550184 483.1305490386495 "></path><path d="M452.6212129838875 350.6704050012807C467.07376214598946 379.80680096078913 488.74679997508497 454.4624413470942 477.26630990613734 472.7392151500293C465.7858198371898 491.01598895296434 421.51308582887975 452.33873734640053 397.514860652939 438.3989192553687C373.5166354769982 424.4591011643368 377.9863633166426 428.56696290390653 362.0748290616218 405.828088313076C346.163294806601 383.0892137222456 311.5938202150001 344.4488990878591 321.1394962288389 329.25232121938257C330.68517224267765 314.055743350906 380.5020496040794 328.4224137564934 407.8940739280479 332.8845145443889C435.28609825201636 337.34661533228433 438.1686638217855 321.5340090417723 452.6212129838875 350.6704050012807C467.07376214598946 379.80680096078913 488.74679997508497 454.4624413470942 477.26630990613734 472.7392151500293 "></path><path d="M445.1039055626402 357.7175183388489C457.49180484444184 382.6915720184275 476.06869441223796 446.68212092097474 466.22827435314 462.3479270377762C456.38785429404214 478.0137331545776 418.4397965726335 444.86180320609446 397.86988927897 432.91338769949573C377.2999819853065 420.96497219289694 381.1311772764303 424.48599654109955 367.4927193435553 404.995532606102C353.8542614106803 385.5050686711045 324.2232831893081 352.3847989844875 332.4052912011699 339.3591608115076C340.5872992130317 326.3335226385277 383.2874798085189 338.6478115576026 406.76635780049196 342.4724693757987C430.2452357924649 346.2971271939948 432.7160062808385 332.7434646592702 445.1039055626402 357.7175183388489C457.49180484444184 382.6915720184275 476.06869441223796 446.68212092097474 466.22827435314 462.3479270377762 "></path><path d="M437.58659814139287 364.76458590004984C447.9098475428942 385.5762972996987 463.390588849391 438.90175471848806 455.19023880014277 451.95659314915594C446.98988875089447 465.0114315798238 415.3665073163873 437.38482328942115 398.22491790500106 427.4278103672555C381.0833284936148 417.4707974450899 384.2759912362179 420.4049844019254 372.9106096254888 404.16293112276077C361.54522801475963 387.92087784359614 336.85274616361613 360.32065310474866 343.67108617350095 349.46595462726543C350.48942618338583 338.6112561497822 386.0729100129585 348.87316358234466 405.638641672936 352.0603784308414C425.20437333291346 355.24759327933816 427.2633487398914 343.952874500401 437.58659814139287 364.76458590004984C447.9098475428942 385.5762972996987 463.390588849391 438.90175471848806 455.19023880014277 451.95659314915594 "></path><path d="M430.0692754613565 371.81166872003985C438.3278749825576 388.46103783975894 450.712468027755 431.12140377479045 444.1521879883564 441.56527451932476C437.5919079489578 452.00914526385907 412.29320280135204 429.9078586315369 398.579931272243 421.9422482938044C384.86665974313405 413.9766379560719 387.42078993721657 416.32398752154035 378.3284846486332 403.33034489820864C369.2361793600499 390.3367022748769 349.4821938791351 368.25652248379896 354.936865887043 359.57276370181233C360.39153789495083 350.88900491982577 388.858324958609 359.0985308658757 404.51091028659096 361.6483027446731C420.163495614573 364.1980746234705 421.8106759401553 355.16229960032075 430.0692754613565 371.81166872003985C438.3278749825576 388.46103783975894 450.712468027755 431.12140377479045 444.1521879883564 441.56527451932476 "></path><path d="M422.5519527813201 378.8587515400299C428.7459024222209 391.3457783798192 438.034347206119 423.34105283109284 433.11413717657 431.1739558894935C428.19392714702104 439.0068589478943 409.2198982863168 422.4308939736527 398.934944639485 416.45668622035333C388.6499909926533 410.48247846705397 390.56558863821516 412.24299064115525 383.74635967177767 402.49775867365645C376.9271307053402 392.7525267061577 362.11164159465403 376.1923918628492 366.20264560058496 369.6795727763593C370.2936496065159 363.1667536898693 391.64373990425946 369.3238981494068 403.383178900246 371.2362270585048C415.12261789623244 373.1485559676029 416.3580031404192 366.3717247002406 422.5519527813201 378.8587515400299C428.7459024222209 391.3457783798192 438.034347206119 423.34105283109284 433.11413717657 431.1739558894935 "></path><path d="M415.0346453600728 385.9058343600199C419.1639451206733 394.2305189198795 425.356241643272 415.5607018873952 422.0761016235727 420.78263725966235C418.7959616038734 426.00457263192953 406.1466090300705 414.95392931576845 399.28997326551604 410.9711241469022C392.43333750096156 406.988318978036 393.7104025980028 408.16199376077014 389.16424995371113 401.6651724491043C384.61809730941945 395.16835113743844 374.7411045689621 384.12826124189945 377.468440572916 379.7863818509062C380.19577657686995 375.4445024599129 394.429170108699 379.54926543293783 402.25546277269 380.82415137233653C410.081755436681 382.09903731173523 410.9053455994722 377.5811498001604 415.0346453600728 385.9058343600199C419.1639451206733 394.2305189198795 425.356241643272 415.5607018873952 422.0761016235727 420.78263725966235 "></path><path d="M407.5173226800364 392.95291718001C409.5819725603367 397.11525945993975 412.678120821636 407.7803509436976 411.0380508117864 410.3913186298312C409.3979808019367 413.00228631596474 403.07330451503526 407.47696465788425 399.64498663275805 405.4855620734511C396.2166687504808 403.494159489018 396.8552012990014 404.0809968803851 394.5821249768556 400.83258622455213C392.3090486547097 397.5841755687192 387.37055228448105 392.06413062094975 388.734220286458 389.8931909254531C390.097888288435 387.72225122995644 397.2145850543495 389.77463271646894 401.12773138634503 390.4120756861683C405.0408777183405 391.04951865586764 405.4526727997361 388.7905749000802 407.5173226800364 392.95291718001C409.5819725603367 397.11525945993975 412.678120821636 407.7803509436976 411.0380508117864 410.3913186298312 "></path></g></svg>